<svg height="496pt" viewBox="0 0 496 496" width="496pt" xmlns="http://www.w3.org/2000/svg" xmlns:xlink="http://www.w3.org/1999/xlink"><linearGradient id="a" gradientUnits="userSpaceOnUse" x1="248" x2="248" y1="496" y2="0"><stop offset="0" stop-color="#9f2fff"/><stop offset="1" stop-color="#0bb1d3"/></linearGradient><path d="m472 272c-3.160156 0-6.160156.648438-8.929688 1.761719-2.757812-10.203125-12.007812-17.761719-23.070312-17.761719-3.160156 0-6.160156.648438-8.929688 1.761719-2.757812-10.203125-12.007812-17.761719-23.070312-17.761719-2.816406 0-5.488281.574219-8 1.472656v-12.34375c46.726562-10.976562 80-52.425781 80-101.128906 0-23.457031-7.894531-45.046875-21.046875-62.464844l18.871094-20.054687-11.65625-10.96875-17.816407 18.9375c-18.734374-18.191407-44.238281-29.449219-72.351562-29.449219-57.34375 0-104 46.65625-104 104 0 48.703125 33.273438 90.152344 80 101.136719v143.496093c-1.503906-1.542968-2.574219-3.535156-2.992188-5.800781l-10.535156-57.929687c-2.199218-12.109375-12.71875-20.902344-25.023437-20.902344-14.035157 0-25.449219 11.414062-25.449219 25.441406v5.109375c0 1.394531.121094 2.792969.34375 4.183594l14.398438 86.355469c1.128906 6.726562 3.960937 13.101562 8.210937 18.40625l19.78125 24.726562c3.402344 4.257813 5.265625 9.578125 5.265625 15v28.777344h128v-28.777344c0-5.421875 1.863281-10.75 5.265625-15l17.964844-22.46875c5.648437-7.066406 8.769531-15.9375 8.769531-24.976562v-108.777344c0-13.230469-10.769531-24-24-24zm-184-144c0-48.519531 39.480469-88 88-88 23.878906 0 45.535156 9.59375 61.398438 25.078125l-93.566407 99.433594-18.167969-18.167969-11.3125 11.3125 29.832032 29.832031 103.65625-110.144531c10.144531 14.34375 16.160156 31.792969 16.160156 50.65625 0 39.921875-26.414062 74.097656-64 84.640625v-12.640625c0-13.230469-10.769531-24-24-24s-24 10.769531-24 24v12.640625c-37.585938-10.542969-64-44.71875-64-84.640625zm192 276.777344c0 5.421875-1.863281 10.75-5.265625 15l-17.964844 22.46875c-5.648437 7.066406-8.769531 15.9375-8.769531 24.976562v12.777344h-96v-12.777344c0-9.039062-3.121094-17.917968-8.769531-24.992187l-19.789063-24.726563c-2.546875-3.183594-4.25-7-4.921875-11.046875l-14.398437-86.335937c-.082032-.511719-.121094-1.042969-.121094-1.570313v-5.109375c0-5.210937 4.230469-9.441406 9.449219-9.441406 4.558593 0 8.472656 3.265625 9.285156 7.761719l10.53125 57.925781c2.351563 12.929688 13.589844 22.3125 26.734375 22.3125h8v-192c0-4.40625 3.585938-8 8-8s8 3.59375 8 8v128h16v-64c0-4.40625 3.585938-8 8-8s8 3.59375 8 8v64h16v-48c0-4.40625 3.585938-8 8-8s8 3.59375 8 8v48h16v-32c0-4.40625 3.585938-8 8-8s8 3.59375 8 8zm-424 91.222656h144c30.871094 0 56-25.121094 56-56v-384c0-30.878906-25.128906-56-56-56h-144c-30.871094 0-56 25.121094-56 56v384c0 30.878906 25.128906 56 56 56zm-40-440c0-22.054688 17.945312-40 40-40h144c22.054688 0 40 17.945312 40 40v384c0 22.054688-17.945312 40-40 40h-144c-22.054688 0-40-17.945312-40-40zm61.800781 270.527344 50.199219-26.015625 50.199219 26.015625-9.589844-55.128906 40.757813-39.160157-56.3125-8.0625-25.054688-50.046875-25.054688 50.046875-56.3125 8.0625 40.757813 39.160157zm3.566407-83.09375 32.144531-4.609375 14.488281-28.953125 14.496094 28.953125 32.144531 4.609375-23.242187 22.335937 5.511718 31.710938-28.910156-14.992188-28.902344 14.984375 5.511719-31.710937zm46.632812 82.832031-22.558594 44.628906-50.921875 7.226563 36.855469 35.085937-8.648438 49.257813 45.273438-23.242188 45.273438 23.242188-8.648438-49.257813 36.855469-35.085937-50.921875-7.226563zm19.375 81.261719 4.570312 26-23.945312-12.289063-23.945312 12.296875 4.570312-26-19.144531-18.207031 26.472656-3.753906 12.046875-23.839844 12.046875 23.832031 26.472656 3.753906zm-64.648438-241.0625 45.273438-23.242188 45.273438 23.242188-8.648438-49.257813 36.855469-35.085937-50.921875-7.226563-22.558594-44.628906-22.558594 44.628906-50.921875 7.226563 36.855469 35.085937zm6.761719-73.136719 26.472657-3.753906 12.039062-23.839844 12.046875 23.832031 26.472656 3.753906-19.144531 18.207032 4.570312 26-23.945312-12.289063-23.945312 12.296875 4.570312-26zm0 0" fill="url(#a)"/></svg>