<?xml version="1.0"?>
<svg xmlns="http://www.w3.org/2000/svg" height="512px" viewBox="0 -8 480 480" width="512px"><path d="m480 264c-.050781-14.53125-8.003906-27.886719-20.761719-34.847656.355469-.320313.753907-.558594 1.097657-.894532 11.425781-11.449218 14.832031-28.65625 8.628906-43.59375-6.199219-14.941406-20.789063-24.671874-36.964844-24.664062h-160c-4.417969 0-8-3.582031-8-8v-104c-.027344-26.5-21.5-47.9726562-48-48h-16c-13.253906 0-24 10.746094-24 24v64c-.046875 39.746094-32.253906 71.953125-72 72h-24v-32h-80v16h64v304h-64v16h80v-55.351562l.703125.558593c18.457031 14.726563 41.359375 22.761719 64.96875 22.792969h254.328125c10.613281.011719 20.792969-4.199219 28.296875-11.703125s11.714844-17.683594 11.703125-28.296875c-.046875-8.996094-3.148438-17.707031-8.800781-24.703125 19.015625-3.410156 32.84375-19.976563 32.800781-39.296875-.03125-9.820312-3.703125-19.28125-10.304688-26.550781 5.484376-1.976563 10.480469-5.113281 14.640626-9.191407 7.472656-7.507812 11.664062-17.667968 11.664062-28.257812zm-22.976562 16.945312c-4.519532 4.507813-10.640626 7.046876-17.023438 7.054688h-112c-4.417969 0-8 3.582031-8 8s3.582031 8 8 8h96c13.253906 0 24 10.746094 24 24s-10.746094 24-24 24h-96c-4.417969 0-8 3.582031-8 8s3.582031 8 8 8h72c13.253906 0 24 10.746094 24 24s-10.746094 24-24 24h-254.328125c-19.976563-.027344-39.351563-6.820312-54.96875-19.28125l-10.703125-8.558594v-212.160156h24c48.578125-.058594 87.941406-39.421875 88-88v-64c0-4.417969 3.582031-8 8-8h16c17.671875 0 32 14.328125 32 32v104c0 13.253906 10.746094 24 24 24h160c13.253906 0 24 10.746094 24 24s-10.746094 24-24 24h-104c-4.417969 0-8 3.582031-8 8s3.582031 8 8 8h112c9.707031-.011719 18.460938 5.824219 22.1875 14.785156 3.726562 8.960938 1.6875 19.285156-5.164062 26.160156zm0 0" fill="#FFFFFF"/></svg>
